<?xml version="1.0" encoding="UTF-8"?>
<svg version="1.1" viewBox="0 0 1000 426" xmlns="http://www.w3.org/2000/svg">
<g transform="translate(-.60563 .58574)">
<svg width="1e3" height="426" data-background-color="#f9f9f9" viewBox="0 0 396 169" xmlns="http://www.w3.org/2000/svg" xmlns:xlink="http://www.w3.org/1999/xlink">
<g transform="translate(.24009 -.23211)">
<svg width="395.52" height="169.46" viewBox="0 0 395.52 169.46448342162054">
<svg width="395.52" height="169.46" viewBox="0 0 395.52 169.46448342162054">
<svg width="395.52" height="169.46" viewBox="0 0 395.52 169.46448342162054">
<svg width="395.52" height="169.46" viewBox="0 0 395.52 169.46448342162054">
<svg width="395.52" height="169.46" viewBox="0 0 395.52 169.46448342162054">
<path d="m394.59 36.347c-1.859-17.59-7.159-22.481-7.159-22.481-16.27-18.118-36.575-14.213-54.816-11.609-32.205 0.105-64.28 3.975-96.411 6.051-67.441 0.316-135.46-4.89-202.56 7.951-6.304 3.94-40.183 0.774-32.522 22.339 2.008 8.972 9.335 18.928 9.111 27.16 1.004 1.442 2.399-1.865 2.994 0.211 2.083 5.594 5.485 2.955 8.275 6.262-3.887 8.831-1.098 16.183 1.561 23.888-4.685 2.005-10.691 1.055-13.387 7.704-0.279 4.82-1.785 3.906-3.44 3.694-1.209-0.14-3.645 0.387-3.236 1.9 1.395 5.172-4.593 8.162-0.837 13.228-2.584 5.488 1.786 10.238 1.191 16.183-0.075 1.196 0.334 2.217 0.985 2.498 2.882 1.513-1.32 4.468-0.874 7.67 29.565 21.882 61.64 6.754 91.93 16.816 7.865-7.036 1.952 2.498 5.095 1.02 2.454-1.724 4.239 5.418 7.01 1.372 0.428-1.161-0.223-3.905 1.301-3.377 0.8 0.281 1.507 0.211 1.618-1.407 0.168-2.428-1.301-0.915-1.692-2.182 4.221-6.402 3.18 8.831 7.14 8.198-0.186-1.865-1.338-4.539 1.023-4.187 2.343-2.674 2.417-4.89 4.5 1.126 0.074 1.301 0.446 2.216 1.041 2.849 6.508-6.543 12.979 2.322 19.803-0.633 4.184-3.236 8.2 1.759 12.439 0.528 1.488-0.985 2.994-2.744 4.426 0.211 17.534 0.633 36.221-2.005 52.845 0.106 44.421-3.941 91.892 1.618 138.73-3.589 11.045-2.005 22.518-4.855 33.284-7.142 0 0 8.721-6.262 8.721-34.406s1.859-24.627 2.138-47.037 1.581-23.325-0.279-40.915z" fill="#030303" data-fill-palette-color="tertiary"/>
<g transform="translate(55.768 26.231)">
<svg width="283.98" height="117" data-palette-color="#f9f9f9" viewBox="0.6000000238418579 -35 84.94000244140625 35">
<path class="undefined-text-0" d="m5.9 0-5.3-35h5.55l3.6 27.15h0.1l3.6-27.15h5.05l-5.3 35h-7.3zm15.25 0v-35h5.5v35h-5.5zm9.6 0v-35h8.4q4.1 0 6.15 2.2 2.04 2.2 2.04 6.45v17.7q0 4.25-2.04 6.45-2.05 2.2-6.15 2.2h-8.4zm5.5-5h2.8q1.35 0 2.07-0.8t0.72-2.6v-18.2q0-1.8-0.72-2.6t-2.07-0.8h-2.8v25zm13.24 5 5.7-35h7.45l5.7 35h-5.5l-1-6.95v0.1h-6.25l-1 6.85h-5.1zm6.75-11.6h4.95l-2.45-17.3h-0.1l-2.4 17.3zm14.75 11.6v-35h5.5v30h9.05v5h-14.55z" fill="#f9f9f9" data-fill-palette-color="quaternary"/>
</svg>
</g>
</svg>
</svg>
</svg>
</svg>
</svg>
<rect width="395.52" height="169.46" fill="none" visibility="hidden"/>
</g>
</svg>
</g>
</svg>
